<svg width="195" height="19" viewBox="0 0 195 19" fill="none" xmlns="http://www.w3.org/2000/svg">
<path d="M15.4922 10.3711C15.9922 10.7148 16.3984 11.1484 16.7109 11.6719C17.0234 12.1875 17.1797 12.7969 17.1797 13.5C17.1797 14.3438 17 15.0586 16.6406 15.6445C16.2891 16.2227 15.7812 16.6797 15.1172 17.0156C14.4141 17.375 13.6016 17.6289 12.6797 17.7773C11.7656 17.9258 10.6875 18 9.44531 18H0.808594V17.0859C1.05078 17.0625 1.35547 17.0273 1.72266 16.9805C2.08984 16.9336 2.34766 16.8789 2.49609 16.8164C2.78516 16.6992 2.98047 16.5469 3.08203 16.3594C3.19141 16.1641 3.24609 15.9141 3.24609 15.6094V3.89062C3.24609 3.60938 3.20312 3.375 3.11719 3.1875C3.03125 3 2.82422 2.83594 2.49609 2.69531C2.25391 2.59375 1.97266 2.51172 1.65234 2.44922C1.33203 2.37891 1.05078 2.32422 0.808594 2.28516V1.37109H9.84375C12.1172 1.37109 13.7578 1.68359 14.7656 2.30859C15.7734 2.93359 16.2773 3.85547 16.2773 5.07422C16.2773 5.63672 16.1641 6.13281 15.9375 6.5625C15.7109 6.98438 15.3867 7.35156 14.9648 7.66406C14.582 7.95312 14.125 8.20312 13.5938 8.41406C13.0625 8.625 12.4922 8.80078 11.8828 8.94141V9.16406C12.4922 9.22656 13.125 9.36328 13.7812 9.57422C14.4375 9.77734 15.0078 10.043 15.4922 10.3711ZM11.7188 5.36719C11.7188 4.44531 11.457 3.72656 10.9336 3.21094C10.418 2.69531 9.64062 2.4375 8.60156 2.4375C8.45312 2.4375 8.25781 2.44531 8.01562 2.46094C7.78125 2.46875 7.57812 2.47656 7.40625 2.48438V8.64844H8.01562C9.28125 8.64844 10.2148 8.35547 10.8164 7.76953C11.418 7.17578 11.7188 6.375 11.7188 5.36719ZM12.5391 13.3477C12.5391 12.1914 12.1953 11.3047 11.5078 10.6875C10.8203 10.0703 9.83203 9.76172 8.54297 9.76172C8.39453 9.76172 8.19531 9.76953 7.94531 9.78516C7.70312 9.79297 7.52344 9.80078 7.40625 9.80859V15.8906C7.47656 16.1797 7.69531 16.4258 8.0625 16.6289C8.42969 16.8242 8.875 16.9219 9.39844 16.9219C10.3281 16.9219 11.082 16.6094 11.6602 15.9844C12.2461 15.3594 12.5391 14.4805 12.5391 13.3477ZM37.043 18H27.9844V17.0859C28.4062 17.0547 28.9023 16.9805 29.4727 16.8633C30.043 16.7383 30.3281 16.5859 30.3281 16.4062C30.3281 16.3438 30.3203 16.2734 30.3047 16.1953C30.2969 16.1172 30.2656 16.0117 30.2109 15.8789L28.793 12.4336H23.0508C22.918 12.7539 22.7695 13.1289 22.6055 13.5586C22.4492 13.9883 22.3125 14.3711 22.1953 14.707C22.0469 15.1445 21.957 15.4609 21.9258 15.6562C21.9023 15.8516 21.8906 15.9883 21.8906 16.0664C21.8906 16.3164 22.0781 16.5312 22.4531 16.7109C22.8359 16.8828 23.4688 17.0078 24.3516 17.0859V18H17.5312V17.0859C17.7891 17.0703 18.0781 17.0312 18.3984 16.9688C18.7266 16.8984 18.9844 16.8047 19.1719 16.6875C19.4922 16.5 19.7617 16.2695 19.9805 15.9961C20.207 15.7227 20.3945 15.3984 20.543 15.0234C21.4492 12.8281 22.3555 10.6289 23.2617 8.42578C24.1758 6.22266 25.1836 3.79297 26.2852 1.13672H28.6289C30.1602 4.90234 31.3594 7.87891 32.2266 10.0664C33.0938 12.2539 33.832 14.0664 34.4414 15.5039C34.543 15.7383 34.6719 15.9531 34.8281 16.1484C34.9844 16.3359 35.207 16.5156 35.4961 16.6875C35.7148 16.8125 35.9688 16.9062 36.2578 16.9688C36.5469 17.0312 36.8086 17.0703 37.043 17.0859V18ZM28.3125 11.2734L25.8984 5.25L23.5195 11.2734H28.3125ZM56.3086 2.28516C56.0898 2.30859 55.7773 2.35156 55.3711 2.41406C54.9648 2.47656 54.5977 2.62891 54.2695 2.87109C53.9805 3.08203 53.7734 3.44531 53.6484 3.96094C53.5312 4.46875 53.4727 5.21875 53.4727 6.21094V18.0938H51.3867L41.0273 5.23828V13.043C41.0273 14.0117 41.0898 14.75 41.2148 15.2578C41.3477 15.7578 41.5586 16.125 41.8477 16.3594C42.0586 16.5312 42.3945 16.6836 42.8555 16.8164C43.3164 16.9492 43.6836 17.0391 43.957 17.0859V18H36.8086V17.0859C37.1133 17.0625 37.4609 17.0078 37.8516 16.9219C38.25 16.8281 38.582 16.6875 38.8477 16.5C39.1523 16.2734 39.3594 15.9336 39.4688 15.4805C39.5859 15.0195 39.6445 14.25 39.6445 13.1719V5.29688C39.6445 4.90625 39.582 4.53906 39.457 4.19531C39.3398 3.84375 39.1523 3.54297 38.8945 3.29297C38.6211 3.02734 38.3047 2.82031 37.9453 2.67188C37.5938 2.51563 37.1914 2.39453 36.7383 2.30859V1.37109H42.9961L52.0898 12.6211V6.32812C52.0898 5.32812 52.0234 4.58594 51.8906 4.10156C51.7578 3.60938 51.5469 3.24609 51.2578 3.01172C51.0312 2.83203 50.6953 2.67969 50.25 2.55469C49.8047 2.42188 49.4453 2.33203 49.1719 2.28516V1.37109H56.3086V2.28516ZM76.8984 18H70.3125C69.3203 16.4766 68.4258 15.2031 67.6289 14.1797C66.832 13.1562 65.8125 11.8711 64.5703 10.3242H63.9609V15.5508C63.9609 15.832 64.0117 16.0703 64.1133 16.2656C64.2148 16.4609 64.418 16.625 64.7227 16.7578C64.8633 16.8203 65.0703 16.8828 65.3438 16.9453C65.625 17.0078 65.9023 17.0547 66.1758 17.0859V18H57.3398V17.0859C57.5508 17.0703 57.8477 17.0469 58.2305 17.0156C58.6211 16.9844 58.8945 16.9375 59.0508 16.875C59.332 16.7656 59.5273 16.6133 59.6367 16.418C59.7461 16.2227 59.8008 15.9766 59.8008 15.6797V3.89062C59.8008 3.61719 59.7539 3.38672 59.6602 3.19922C59.5664 3.01172 59.3633 2.84375 59.0508 2.69531C58.8086 2.58594 58.5156 2.49609 58.1719 2.42578C57.8281 2.35547 57.5508 2.30859 57.3398 2.28516V1.37109H66.4688V2.28516C66.2266 2.30859 65.9336 2.34375 65.5898 2.39062C65.2539 2.42969 64.9648 2.48828 64.7227 2.56641C64.418 2.66797 64.2148 2.82812 64.1133 3.04688C64.0117 3.26563 63.9609 3.50781 63.9609 3.77344V9.375H64.4531C65.0625 8.82031 65.7734 8.15234 66.5859 7.37109C67.3984 6.58984 68.0273 5.94922 68.4727 5.44922C69.0977 4.75391 69.5547 4.20312 69.8438 3.79688C70.1406 3.39062 70.2891 3.03906 70.2891 2.74219C70.2891 2.60938 70.1484 2.50781 69.8672 2.4375C69.5859 2.36719 69.1562 2.31641 68.5781 2.28516V1.37109H75.8086V2.28516C74.9336 2.37891 74.1992 2.53906 73.6055 2.76562C73.0117 2.98438 72.4219 3.35547 71.8359 3.87891C71 4.62891 70.3086 5.28125 69.7617 5.83594C69.2227 6.38281 68.5273 7.08594 67.6758 7.94531C68.4258 8.85938 69.3281 9.98047 70.3828 11.3086C71.4375 12.6289 72.4883 13.918 73.5352 15.1758C73.8008 15.4961 74.1055 15.8047 74.4492 16.1016C74.793 16.3906 75.1719 16.625 75.5859 16.8047C75.7812 16.8906 76.0039 16.957 76.2539 17.0039C76.5039 17.0508 76.7188 17.0781 76.8984 17.0859V18Z" fill="#86C421"/>
<path d="M105.926 18H96.9141V17.0859C97.1797 17.0625 97.5039 17.0234 97.8867 16.9688C98.2773 16.9141 98.543 16.8555 98.6836 16.793C98.9727 16.6758 99.1797 16.5156 99.3047 16.3125C99.4297 16.1094 99.4922 15.8516 99.4922 15.5391V3.11719L93.7734 17.7305H92.2969C92.2266 17.4727 92.0508 16.9609 91.7695 16.1953C91.4961 15.4297 91.2734 14.8164 91.1016 14.3555L86.8945 2.92969V13.043C86.8945 14.0117 86.957 14.75 87.082 15.2578C87.2148 15.7578 87.4258 16.125 87.7148 16.3594C87.9102 16.5234 88.2578 16.6797 88.7578 16.8281C89.2656 16.9766 89.6211 17.0625 89.8242 17.0859V18H82.6758V17.0859C82.8711 17.0625 83.1875 17.0117 83.625 16.9336C84.0703 16.8477 84.4336 16.7031 84.7148 16.5C85.0273 16.2812 85.2383 15.9141 85.3477 15.3984C85.457 14.875 85.5117 14.1328 85.5117 13.1719V4.93359C85.5117 4.43359 85.4492 4.01953 85.3242 3.69141C85.1992 3.35547 85.0117 3.08984 84.7617 2.89453C84.4492 2.65234 84.1289 2.49609 83.8008 2.42578C83.4727 2.35547 83.1406 2.30859 82.8047 2.28516V1.37109H90.457L94.5586 12.3516L98.0156 3.43359C98.1328 3.10547 98.2461 2.71484 98.3555 2.26172C98.4648 1.80859 98.5234 1.51172 98.5312 1.37109H105.902V2.28516C105.652 2.30078 105.391 2.33203 105.117 2.37891C104.844 2.42578 104.582 2.48828 104.332 2.56641C104.027 2.66797 103.824 2.82812 103.723 3.04688C103.629 3.26563 103.582 3.50781 103.582 3.77344V15.5508C103.582 15.832 103.629 16.0703 103.723 16.2656C103.824 16.4531 104.027 16.6172 104.332 16.7578C104.488 16.8281 104.742 16.8945 105.094 16.957C105.453 17.0195 105.73 17.0625 105.926 17.0859V18ZM125.684 18H116.625V17.0859C117.047 17.0547 117.543 16.9805 118.113 16.8633C118.684 16.7383 118.969 16.5859 118.969 16.4062C118.969 16.3438 118.961 16.2734 118.945 16.1953C118.938 16.1172 118.906 16.0117 118.852 15.8789L117.434 12.4336H111.691C111.559 12.7539 111.41 13.1289 111.246 13.5586C111.09 13.9883 110.953 14.3711 110.836 14.707C110.688 15.1445 110.598 15.4609 110.566 15.6562C110.543 15.8516 110.531 15.9883 110.531 16.0664C110.531 16.3164 110.719 16.5312 111.094 16.7109C111.477 16.8828 112.109 17.0078 112.992 17.0859V18H106.172V17.0859C106.43 17.0703 106.719 17.0312 107.039 16.9688C107.367 16.8984 107.625 16.8047 107.812 16.6875C108.133 16.5 108.402 16.2695 108.621 15.9961C108.848 15.7227 109.035 15.3984 109.184 15.0234C110.09 12.8281 110.996 10.6289 111.902 8.42578C112.816 6.22266 113.824 3.79297 114.926 1.13672H117.27C118.801 4.90234 120 7.87891 120.867 10.0664C121.734 12.2539 122.473 14.0664 123.082 15.5039C123.184 15.7383 123.312 15.9531 123.469 16.1484C123.625 16.3359 123.848 16.5156 124.137 16.6875C124.355 16.8125 124.609 16.9062 124.898 16.9688C125.188 17.0312 125.449 17.0703 125.684 17.0859V18ZM116.953 11.2734L114.539 5.25L112.16 11.2734H116.953ZM132.82 18.4453C131.805 18.4453 130.855 18.3203 129.973 18.0703C129.098 17.8203 128.355 17.5234 127.746 17.1797L126.938 18H125.941L125.789 11.9883H126.797C127.023 12.5586 127.312 13.1602 127.664 13.793C128.016 14.4258 128.422 14.9922 128.883 15.4922C129.359 16.0156 129.891 16.4414 130.477 16.7695C131.07 17.0977 131.762 17.2617 132.551 17.2617C133.613 17.2617 134.426 17.0039 134.988 16.4883C135.559 15.9648 135.844 15.3086 135.844 14.5195C135.844 13.8711 135.602 13.3281 135.117 12.8906C134.641 12.4453 133.898 12.0625 132.891 11.7422C132.234 11.5312 131.629 11.3359 131.074 11.1562C130.527 10.9766 130.012 10.793 129.527 10.6055C128.41 10.1602 127.578 9.52344 127.031 8.69531C126.492 7.86719 126.223 6.94141 126.223 5.91797C126.223 5.26953 126.363 4.64844 126.645 4.05469C126.926 3.45313 127.336 2.91406 127.875 2.4375C128.391 1.99219 129.051 1.62891 129.855 1.34766C130.66 1.06641 131.535 0.925781 132.48 0.925781C133.402 0.925781 134.266 1.05469 135.07 1.3125C135.875 1.5625 136.508 1.81641 136.969 2.07422L137.684 1.37109H138.703L138.797 7.04297H137.789C137.555 6.43359 137.277 5.8125 136.957 5.17969C136.645 4.53906 136.312 4.00781 135.961 3.58594C135.578 3.13281 135.137 2.77344 134.637 2.50781C134.137 2.23438 133.551 2.09766 132.879 2.09766C132.035 2.09766 131.344 2.33594 130.805 2.8125C130.273 3.28906 130.008 3.87891 130.008 4.58203C130.008 5.24609 130.238 5.78906 130.699 6.21094C131.168 6.63281 131.895 7.00391 132.879 7.32422C133.457 7.51953 134.047 7.71484 134.648 7.91016C135.25 8.10547 135.785 8.29297 136.254 8.47266C137.387 8.91016 138.246 9.51562 138.832 10.2891C139.426 11.0547 139.723 12.0078 139.723 13.1484C139.723 13.8672 139.555 14.5625 139.219 15.2344C138.883 15.9062 138.43 16.4648 137.859 16.9102C137.234 17.4023 136.512 17.7812 135.691 18.0469C134.871 18.3125 133.914 18.4453 132.82 18.4453ZM156.891 6.12891H155.988C155.746 5.41797 155.355 4.65625 154.816 3.84375C154.285 3.03125 153.793 2.59375 153.34 2.53125C153.09 2.5 152.781 2.47266 152.414 2.44922C152.047 2.42578 151.73 2.41406 151.465 2.41406H150.914V15.457C150.914 15.7383 150.965 15.9883 151.066 16.207C151.168 16.418 151.367 16.5859 151.664 16.7109C151.844 16.7812 152.121 16.8555 152.496 16.9336C152.879 17.0039 153.203 17.0547 153.469 17.0859V18H144.199V17.0859C144.426 17.0625 144.742 17.0312 145.148 16.9922C145.562 16.9453 145.844 16.8906 145.992 16.8281C146.297 16.7031 146.5 16.5352 146.602 16.3242C146.703 16.1133 146.754 15.8633 146.754 15.5742V2.41406H146.203C145.938 2.41406 145.621 2.42578 145.254 2.44922C144.887 2.47266 144.578 2.5 144.328 2.53125C143.875 2.59375 143.379 3.03125 142.84 3.84375C142.309 4.65625 141.922 5.41797 141.68 6.12891H140.777V1.37109H156.891V6.12891ZM172.605 5.61328H171.715C171.488 4.98047 171.098 4.33984 170.543 3.69141C169.988 3.04297 169.438 2.66016 168.891 2.54297C168.656 2.48828 168.328 2.45703 167.906 2.44922C167.492 2.43359 167.148 2.42578 166.875 2.42578H164.461V8.84766H166.172C166.602 8.84766 166.992 8.79688 167.344 8.69531C167.695 8.59375 168.016 8.39844 168.305 8.10938C168.484 7.92969 168.664 7.61328 168.844 7.16016C169.031 6.70703 169.152 6.3125 169.207 5.97656H170.098V12.9141H169.207C169.16 12.5859 169.039 12.1758 168.844 11.6836C168.656 11.1836 168.477 10.8398 168.305 10.6523C168.047 10.3711 167.742 10.1797 167.391 10.0781C167.039 9.96875 166.633 9.91406 166.172 9.91406H164.461V14.707C164.461 15.207 164.496 15.6055 164.566 15.9023C164.645 16.1914 164.785 16.4141 164.988 16.5703C165.184 16.7188 165.449 16.8164 165.785 16.8633C166.129 16.9102 166.594 16.9336 167.18 16.9336C167.453 16.9336 167.781 16.9297 168.164 16.9219C168.547 16.9141 168.883 16.8906 169.172 16.8516C169.5 16.8125 169.805 16.7539 170.086 16.6758C170.375 16.5977 170.59 16.4844 170.73 16.3359C171.105 15.9531 171.527 15.3711 171.996 14.5898C172.465 13.8008 172.773 13.2109 172.922 12.8203H173.777L173.461 18H157.863V17.0859C158.082 17.0703 158.379 17.0391 158.754 16.9922C159.129 16.9453 159.395 16.8906 159.551 16.8281C159.848 16.7031 160.047 16.5469 160.148 16.3594C160.25 16.1641 160.301 15.918 160.301 15.6211V3.89062C160.301 3.60938 160.258 3.37891 160.172 3.19922C160.086 3.01172 159.879 2.84375 159.551 2.69531C159.348 2.60156 159.062 2.51563 158.695 2.4375C158.328 2.35937 158.051 2.30859 157.863 2.28516V1.37109H172.605V5.61328ZM194.273 18H187.898C186.797 16.3125 185.879 14.9688 185.145 13.9688C184.418 12.9688 183.512 11.8125 182.426 10.5H181.781V15.5508C181.781 15.832 181.832 16.0703 181.934 16.2656C182.043 16.4609 182.246 16.625 182.543 16.7578C182.691 16.8203 182.922 16.8867 183.234 16.957C183.555 17.0195 183.828 17.0625 184.055 17.0859V18H175.184V17.0859C175.41 17.0625 175.707 17.0312 176.074 16.9922C176.449 16.9453 176.715 16.8906 176.871 16.8281C177.168 16.7031 177.367 16.5469 177.469 16.3594C177.57 16.1641 177.621 15.918 177.621 15.6211V3.89062C177.621 3.60938 177.578 3.375 177.492 3.1875C177.406 3 177.199 2.83594 176.871 2.69531C176.621 2.59375 176.324 2.50781 175.98 2.4375C175.645 2.36719 175.379 2.31641 175.184 2.28516V1.37109H184.512C186.598 1.37109 188.18 1.69922 189.258 2.35547C190.344 3.00391 190.887 3.98828 190.887 5.30859C190.887 6.47266 190.551 7.41016 189.879 8.12109C189.215 8.82422 188.199 9.375 186.832 9.77344C187.363 10.4609 187.98 11.2578 188.684 12.1641C189.395 13.0703 190.133 13.9961 190.898 14.9414C191.141 15.2461 191.469 15.6211 191.883 16.0664C192.305 16.5039 192.676 16.7734 192.996 16.875C193.176 16.9297 193.402 16.9766 193.676 17.0156C193.957 17.0547 194.156 17.0781 194.273 17.0859V18ZM186.293 5.63672C186.293 4.52734 185.98 3.71875 185.355 3.21094C184.738 2.69531 183.855 2.4375 182.707 2.4375H181.781V9.39844H182.672C183.82 9.39844 184.711 9.09766 185.344 8.49609C185.977 7.89453 186.293 6.94141 186.293 5.63672Z" fill="#3B5998"/>
</svg>
