<svg width="864" height="917" viewBox="0 0 864 917" fill="none" xmlns="http://www.w3.org/2000/svg">
<path d="M0 917V0H864C864 0 854.066 8.75281 848.866 11.8413C842.883 15.3954 839.335 17.0539 833.309 20.5355C827.567 23.8531 824.308 25.6564 818.723 29.2297C812.303 33.3379 808.903 35.9412 802.68 40.3389C797.14 44.2534 793.982 46.3809 788.58 50.482C782.361 55.2047 778.713 57.6987 773.023 63.0403C767.945 67.8074 765.625 70.9975 760.868 76.0815C755.564 81.7514 752.232 84.6162 747.255 90.5718C742.574 96.1738 739.806 99.279 736.073 105.545C731.743 112.814 729.924 117.308 727.322 125.348C725.292 131.621 724.548 135.276 723.433 141.771C721.99 150.171 721.471 154.984 721.488 163.506C721.505 171.84 722.184 176.518 723.433 184.759C724.558 192.184 725.722 196.256 727.322 203.596C728.599 209.455 729.723 212.658 730.725 218.569C732.213 227.343 732.326 232.38 732.67 241.271C732.954 248.622 733.322 252.78 732.67 260.108C731.781 270.095 729.911 275.534 727.322 285.224L727.154 285.853C725.271 292.906 724.159 297.071 721.488 304.062C718.565 311.712 716.366 315.944 712.714 322.972L712.25 323.865C708.547 330.997 706.397 334.978 702.041 341.736C698.149 347.775 695.768 351.044 691.345 356.71C684.832 365.053 681.232 369.907 673.356 376.996C665.39 384.166 659.303 386.163 650.992 392.935C644.652 398.101 641.301 401.252 635.434 406.943C628.899 413.281 625.267 416.902 619.391 423.848C612.574 431.906 608.786 436.55 603.347 445.583C597.635 455.069 596.104 461.265 591.192 471.183C586.769 480.115 583.555 484.771 579.524 493.884C575.849 502.191 574.456 507.12 571.259 515.62C568 524.285 565.215 528.855 562.994 537.838C561.117 545.428 560.608 549.843 560.077 557.641C559.616 564.416 560.077 568.239 560.077 575.03V594.35V638.304V658.107C560.077 658.107 560.692 666.679 560.077 672.114C559.31 678.888 555.701 689.02 555.701 689.02C555.701 689.02 552.218 704.08 548.409 713.17C544.588 722.287 541.806 727.197 536.254 735.389C531.795 741.969 528.75 745.426 523.631 751.239L523.127 751.811C517.205 758.538 513.727 762.207 507.083 768.233C499.901 774.748 495.499 778.002 487.636 783.69C479.548 789.541 475.009 792.902 466.245 797.697C453.489 804.675 445.461 806.9 431.726 811.704C419.375 816.024 412.197 817.685 399.638 821.364C389.782 824.251 384.089 825.334 374.357 828.609C362.336 832.656 355.602 835.117 344.214 840.685C330.453 847.412 323.161 852.134 310.668 860.971C296.726 870.832 289.458 877.201 277.121 888.985C266.663 898.977 251.523 917 251.523 917H0Z" fill="#F5FFFA"/>
</svg>
