<svg width="200" height="50" viewBox="0 0 200 50" fill="none" xmlns="http://www.w3.org/2000/svg">
<g clip-path="url(#clip0_4347_1919)">
<path fill-rule="evenodd" clip-rule="evenodd" d="M0 0H200V50H0V0Z" fill="#254AA5"/>
<path fill-rule="evenodd" clip-rule="evenodd" d="M49.8457 8.60889H64.2365V10.6619H52.1703V17.6253H63.4726V19.6992H52.1703V27.3033H64.373V29.3577H49.8457V8.60889Z" fill="white"/>
<path fill-rule="evenodd" clip-rule="evenodd" d="M75.3102 27.8758L75.6499 27.8717L75.9748 27.8421C81.7216 27.4709 81.7127 16.1574 75.9748 15.7745L75.6499 15.7492L75.3102 15.7407C69.55 15.5396 69.2177 26.8742 74.4439 27.7979L74.7168 27.8426L75.0076 27.8722L75.3102 27.8758ZM78.9061 28.6327L78.7295 28.7505L78.55 28.8637C72.3255 32.0966 67.6572 26.4636 68.654 20.2555L68.7163 19.88L68.7846 19.5105C69.728 13.5676 76.9613 11.8632 80.1136 16.2225L80.213 16.4011L80.2575 16.4801V8.60938H82.4722V29.3567H80.3969V27.0727L80.3465 27.1623C80.0483 27.6241 79.6671 28.0323 79.2413 28.3794L79.0752 28.5091L78.9061 28.6327Z" fill="white"/>
<path fill-rule="evenodd" clip-rule="evenodd" d="M98.8408 20.5808L98.8349 20.547C98.289 14.1869 90.6285 14.0454 89.7637 20.5639L89.7578 20.5808H98.8408ZM89.7399 22.5116V22.5496C89.866 28.9037 97.3158 29.6874 98.7295 24.4804L98.8289 24.132H101.021L100.881 24.6937L100.797 24.9977C98.9758 32.2621 87.3813 31.401 87.5548 22.2028L87.543 21.8096L87.5548 21.4401C87.7284 11.2259 100.998 11.1514 101.016 21.5297L101.021 21.9228L101.008 22.5113L89.7399 22.5116Z" fill="white"/>
<path fill-rule="evenodd" clip-rule="evenodd" d="M105.881 8.6084H108.088V29.3572H105.881V8.6084Z" fill="white"/>
<path fill-rule="evenodd" clip-rule="evenodd" d="M131.218 14.2344H133.547L128.666 29.3576H126.446L122.955 17.4002L119.485 29.3576H117.239L112.406 14.2344H114.732L118.35 26.4122L121.793 14.2344H124.14L127.598 26.4122L131.218 14.2344Z" fill="white"/>
<path fill-rule="evenodd" clip-rule="evenodd" d="M148.347 20.5805V20.5468C147.807 14.212 140.204 14.0168 139.319 20.5636L139.313 20.5805H148.347ZM139.298 22.5113V22.5494C139.427 28.9079 146.82 29.6886 148.243 24.4802L148.337 24.1317H150.554L150.418 24.6934L150.332 24.9975C148.476 32.2559 136.942 31.4022 137.085 22.2025L137.08 21.8094L137.085 21.4398C137.288 11.2181 150.504 11.1645 150.548 21.5294L150.554 21.9225L150.545 22.511L139.298 22.5113Z" fill="white"/>
<path fill-rule="evenodd" clip-rule="evenodd" d="M155.438 14.234H157.599V29.3572H155.438V14.234ZM155.438 8.6084H157.6V11.88H155.438V8.6084Z" fill="white"/>
<path fill-rule="evenodd" clip-rule="evenodd" d="M172.262 18.9824L172.239 18.5892L172.216 18.3983L172.188 18.2197C171.771 15.7123 168.583 15.2877 166.645 16.1324L166.4 16.268L166.179 16.4124L165.976 16.5822C164.858 17.7875 165.304 19.2907 166.791 19.8792L167.038 19.9923L167.285 20.0819C169.079 20.7613 171.298 20.7254 172.897 21.6759L173.069 21.7756L173.238 21.8888L173.402 22.0126L173.562 22.1363C179.846 29.8014 163.483 33.2459 162.736 25.1115L162.691 24.7837L162.635 24.2295H164.826L164.857 24.6273L164.888 24.8343L164.925 25.0294C165.474 27.7081 168.476 28.3204 170.742 27.6009L170.896 27.5501L171.055 27.4876L171.204 27.4205C172.099 27.0168 172.774 26.33 172.769 25.29L172.755 25.0072L172.701 24.7613C172.285 22.7977 167.913 22.6012 166.563 22.0454L166.355 21.9782L166.155 21.9111L165.959 21.8321L165.768 21.7591L165.578 21.6755C162.299 20.4404 162.44 15.9501 165.481 14.5481L165.708 14.4379L165.937 14.3412C169.177 13.1017 173.674 13.8898 174.361 17.884L174.407 18.1745L174.44 18.4663L174.473 18.9818L172.262 18.9824Z" fill="white"/>
<path fill-rule="evenodd" clip-rule="evenodd" d="M188.763 18.9825L188.735 18.5894L188.714 18.4048L188.684 18.2203C188.245 15.7129 185.094 15.2882 183.141 16.133L182.902 16.2686L182.679 16.413L182.477 16.5828C181.365 17.7791 181.804 19.2853 183.274 19.8857L183.516 19.9929L183.762 20.0825C185.561 20.7678 187.807 20.7216 189.405 21.6766L189.585 21.7762L189.752 21.8895L189.912 22.0132L190.071 22.1369C196.336 29.8021 179.979 33.248 179.236 25.1121L179.193 24.7844L179.137 24.2302H181.328L181.362 24.6322L181.382 24.8349L181.421 25.03C181.958 27.7132 184.962 28.3196 187.226 27.6015L187.386 27.5449L187.545 27.4883L187.696 27.4212C188.582 27.0369 189.288 26.3157 189.27 25.2907L189.255 25.0078L189.202 24.762C188.812 22.8252 184.425 22.5973 183.059 22.0461L182.853 21.9789L182.649 21.9118L182.454 21.8328L182.265 21.7597L182.074 21.6761C178.776 20.4425 178.911 15.9566 181.969 14.5487L182.193 14.4385L182.423 14.3418C185.65 13.1067 190.19 13.8785 190.847 17.8846L190.891 18.1752L190.918 18.467L190.946 18.9825L188.763 18.9825Z" fill="white"/>
<path fill-rule="evenodd" clip-rule="evenodd" d="M10.044 25.8557H20.7499C20.1002 26.0019 19.5024 26.1864 19.0262 26.5008C18.0575 27.0729 17.654 28.229 18.1465 29.0811C18.6375 29.9349 19.8317 30.1702 20.8108 29.6027C22.1473 28.9531 23.0834 27.0789 24.6098 26.0404C24.4808 27.8864 23.3311 29.6369 23.4364 31.1252C23.4364 32.2575 24.2345 33.1842 25.2195 33.1842C26.2031 33.1842 26.9967 32.2575 26.9967 31.1252C27.1065 29.6369 25.9553 27.8864 25.8277 26.0404C27.3527 27.0789 28.2932 28.9531 29.6268 29.6027C30.6044 30.1702 31.8001 29.9409 32.2926 29.0811C32.7836 28.229 32.3816 27.0729 31.407 26.5053C30.1801 25.671 28.0915 25.7872 26.436 24.9797C28.0915 24.1782 30.1801 24.3018 31.407 23.4601C32.3816 22.888 32.7836 21.7378 32.2926 20.8782C31.8001 20.0246 30.6044 19.7892 29.6268 20.3628C28.2932 21.0123 27.3527 22.888 25.8277 23.9249C25.9553 22.079 27.1065 20.3285 26.9967 18.8372C26.9967 17.7034 26.2031 16.7827 25.2195 16.7827C24.2345 16.7827 23.4364 17.7034 23.4364 18.8372C23.3311 20.3285 24.4808 22.079 24.6098 23.9249C23.0834 22.888 22.1473 21.0123 20.8108 20.3628C19.8317 19.7892 18.6375 20.0245 18.1465 20.8782C17.654 21.7378 18.0575 22.894 19.0262 23.4601C19.5024 23.7848 20.1002 23.9652 20.7499 24.1112H10.044C10.489 16.0929 17.1125 9.73581 25.2092 9.73581C30.6549 9.73581 35.4389 12.6186 38.1136 16.9511H40.1132C37.2621 11.6205 31.6547 7.98975 25.2092 7.98975C15.8665 7.98975 8.28906 15.5983 8.28906 24.9797C8.28906 34.3626 15.8665 41.9757 25.2092 41.9757C31.6547 41.9757 37.2591 38.3464 40.1132 33.0098H38.1136C35.4389 37.3467 30.6549 40.231 25.2092 40.231C17.1125 40.231 10.4964 33.868 10.044 25.8557Z" fill="white"/>
<path d="M49.8457 41.3637V33.2278H50.3886H50.939V41.3637H50.3946H49.8457ZM55.106 41.5229C54.3212 41.5229 53.6908 41.2294 53.2235 40.635C52.7621 40.045 52.5278 39.2435 52.5278 38.2349C52.5278 37.3469 52.7518 36.6273 53.2042 36.0851C53.6552 35.5412 54.2411 35.2642 54.9754 35.2642C55.7008 35.2642 56.2705 35.5742 56.6888 36.1909L56.7674 36.2981V33.2275H57.2659H57.7554V41.3635H57.3H56.8401V40.556L56.7125 40.7423C56.3031 41.2637 55.7676 41.5229 55.106 41.5229ZM55.1609 36.1625C54.6105 36.1625 54.204 36.3369 53.9459 36.6959C53.6908 37.0489 53.5617 37.6166 53.5617 38.3898C53.5617 39.1243 53.6997 39.68 53.9786 40.0793C54.2545 40.4725 54.6506 40.6722 55.1609 40.6722C55.6445 40.6722 56.0361 40.4889 56.3283 40.124C56.6176 39.765 56.7674 39.2822 56.7674 38.6878C56.7674 37.8743 56.628 37.2575 56.3535 36.8195C56.0747 36.38 55.6786 36.1625 55.1609 36.1625ZM61.7132 41.5229C60.8854 41.5229 60.2253 41.2577 59.7447 40.7244C59.27 40.1955 59.0312 39.461 59.0312 38.5239C59.0312 37.5272 59.2878 36.7361 59.7892 36.1447C60.2936 35.5547 60.9745 35.2642 61.823 35.2642C62.5944 35.2642 63.2204 35.5518 63.6906 36.1238C64.1698 36.7018 64.4056 37.4587 64.4056 38.3958L64.3938 38.7488H60.0874C60.1259 39.3432 60.2594 39.7932 60.4894 40.1016C60.7623 40.4783 61.2088 40.6632 61.8126 40.6632C62.1879 40.6632 62.5172 40.556 62.7991 40.3431C63.0869 40.1315 63.2545 39.8544 63.3227 39.5237H64.2988C64.146 40.1747 63.8583 40.6694 63.4162 41.0105C62.9726 41.353 62.4045 41.5229 61.7132 41.5229ZM63.3643 37.9476C63.3376 37.3963 63.1996 36.9702 62.9667 36.6633C62.6952 36.3251 62.3051 36.1568 61.78 36.1568C61.2608 36.1568 60.8409 36.3489 60.5265 36.7393C60.2817 37.0493 60.1363 37.447 60.0874 37.9476H63.3643ZM67.3191 41.5231C66.7406 41.5231 66.2822 41.3711 65.9469 41.0628C65.6132 40.7486 65.444 40.3313 65.444 39.8054C65.444 39.2705 65.5998 38.8504 65.9187 38.536C66.2362 38.2218 66.6961 38.0251 67.3117 37.9476L68.6631 37.7791C68.7744 37.7664 68.8752 37.7537 68.9746 37.7237C69.0992 37.6899 69.1986 37.6194 69.2713 37.5269C69.344 37.4255 69.3752 37.2959 69.3752 37.1498V37.0949C69.3752 36.7807 69.2535 36.5332 69.0177 36.353C68.7803 36.1727 68.4495 36.0848 68.0193 36.0848C67.6113 36.0848 67.2983 36.1785 67.0654 36.3694C66.8296 36.5569 66.6961 36.8432 66.6516 37.2171H65.7333C65.7793 36.5676 66.0092 36.0804 66.4172 35.7527C66.8236 35.4279 67.4111 35.264 68.1706 35.264C68.8856 35.264 69.43 35.4219 69.8009 35.7318C70.1821 36.0447 70.3691 36.499 70.3691 37.095V40.3488C70.3691 40.4484 70.3943 40.5291 70.4625 40.5886C70.5174 40.6511 70.6034 40.6853 70.7088 40.6853C70.734 40.6853 70.7726 40.6811 70.8304 40.6727C70.8912 40.6642 70.9535 40.6516 71.0188 40.6431V41.3597C70.9194 41.3935 70.8185 41.4268 70.7177 41.4433C70.6049 41.4729 70.5174 41.4813 70.4432 41.4813C70.0694 41.4813 69.8009 41.377 69.6273 41.1671C69.522 41.0328 69.4449 40.8423 69.3944 40.5891C69.3218 40.6799 69.2372 40.7694 69.1423 40.8526C68.6394 41.3026 68.0371 41.5231 67.3191 41.5231ZM69.3752 39.0187V38.3736C69.1942 38.4644 68.985 38.5239 68.764 38.5598L67.8576 38.6878C67.374 38.7549 67.0298 38.8664 66.8073 39.026C66.5907 39.181 66.478 39.3955 66.478 39.6637C66.478 39.9943 66.5729 40.2537 66.751 40.4265C66.9305 40.614 67.1812 40.6976 67.5105 40.6976C68.0371 40.6976 68.4732 40.5561 68.8411 40.27C69.0844 40.0749 69.2446 39.8498 69.3262 39.5951C69.344 39.552 69.3544 39.4743 69.3618 39.37C69.3692 39.2657 69.3752 39.1466 69.3752 39.0187ZM75.5952 37.1564C75.567 36.8299 75.4335 36.5724 75.1976 36.3951C74.9647 36.2135 74.6399 36.124 74.2423 36.124C73.8299 36.124 73.5125 36.1911 73.3003 36.3372C73.0867 36.4774 72.9755 36.6903 72.9755 36.9704C72.9755 37.179 73.0541 37.337 73.2113 37.4427C73.3567 37.5559 73.6564 37.6619 74.1044 37.7675L75.1309 38.0103C75.702 38.1505 76.11 38.3468 76.3562 38.5927C76.595 38.8326 76.7182 39.1768 76.7182 39.6133C76.7182 40.2033 76.506 40.6636 76.0922 41.0063C75.6679 41.3534 75.0997 41.5233 74.3832 41.5233C73.5555 41.5233 72.9369 41.3594 72.5289 41.0286C72.1225 40.6979 71.8911 40.1809 71.8451 39.4672H72.8019C72.8523 39.8948 72.9977 40.1958 73.2454 40.3895C73.4947 40.5728 73.87 40.6636 74.3832 40.6636C74.8312 40.6636 75.165 40.5804 75.3949 40.4102C75.6219 40.2417 75.7406 39.9946 75.7406 39.6712C75.7406 39.4613 75.6679 39.3063 75.5107 39.1989C75.3653 39.0916 75.0597 38.9844 74.6058 38.8788L73.5792 38.6373C73.0259 38.5034 72.6298 38.3184 72.3939 38.0756C72.1596 37.8404 72.0409 37.5095 72.0409 37.0774C72.0409 36.5217 72.2382 36.0807 72.6343 35.7529C73.0303 35.4282 73.5674 35.2643 74.2423 35.2643C74.9306 35.2643 75.4736 35.4357 75.88 35.7708C76.2835 36.1015 76.5016 36.5679 76.5283 37.1564H75.5952Z" fill="white"/>
<path d="M85.8304 39.2333C85.7236 39.9782 85.467 40.5458 85.0412 40.9391C84.6169 41.3264 84.0592 41.5216 83.3545 41.5216C82.5713 41.5216 81.9468 41.2416 81.478 40.6739C81.0137 40.1137 80.7793 39.351 80.7793 38.3975C80.7793 37.441 81.0211 36.6783 81.5047 36.1121C81.9883 35.546 82.6395 35.2644 83.4525 35.2644C84.1571 35.2644 84.7282 35.4553 85.1554 35.8499C85.5723 36.2359 85.8007 36.7751 85.8304 37.4544H84.8751C84.835 37.0329 84.6867 36.7006 84.4389 36.4727C84.1808 36.2416 83.8411 36.1255 83.4213 36.1255C82.9184 36.1255 82.5268 36.3265 82.242 36.7289C81.9571 37.1343 81.8103 37.6898 81.8103 38.3975C81.8103 39.1469 81.9468 39.7145 82.2153 40.0973C82.4823 40.4787 82.8739 40.6619 83.3887 40.6619C83.7788 40.6619 84.1022 40.5382 84.3588 40.2941C84.6169 40.0454 84.7905 39.6937 84.8751 39.2334L85.8304 39.2333ZM87.1329 41.3637V35.4387H87.6001H88.0763V36.4547C88.1579 36.2985 88.2499 36.1524 88.3433 36.0212C88.7187 35.5176 89.183 35.2644 89.7304 35.2644C89.8194 35.2644 89.9113 35.2813 90.0092 35.3151V36.3311L89.8015 36.327C89.266 36.327 88.8536 36.4891 88.5599 36.8096C88.2692 37.1344 88.1253 37.5932 88.1253 38.1951V41.364H87.6283L87.1329 41.3637ZM93.3336 41.5216C92.4955 41.5216 91.8472 41.2577 91.3666 40.7246C90.886 40.1972 90.6516 39.4627 90.6516 38.5256C90.6516 37.526 90.8963 36.7363 91.4052 36.1463C91.911 35.5564 92.5889 35.2644 93.4449 35.2644C94.2148 35.2644 94.8364 35.552 95.311 36.1255C95.7813 36.7006 96.0186 37.4604 96.0186 38.3975L96.0098 38.7505H91.7018C91.7405 39.3435 91.8754 39.7934 92.1038 40.1018C92.3827 40.479 92.8189 40.6619 93.4226 40.6619C93.8024 40.6619 94.1302 40.5564 94.4165 40.3448C94.6969 40.1303 94.8749 39.8547 94.9313 39.5254H95.9133C95.7694 40.1765 95.4727 40.6696 95.0322 41.0108C94.596 41.3533 94.0219 41.5216 93.3336 41.5216ZM94.9862 37.9475C94.9521 37.3978 94.8186 36.9717 94.5738 36.6633C94.3053 36.3267 93.9137 36.1583 93.3989 36.1583C92.8753 36.1583 92.4629 36.3492 92.1454 36.7408C91.9036 37.0508 91.7508 37.447 91.7019 37.9475H94.9862ZM98.9381 41.5216C98.3625 41.5216 97.9011 41.3713 97.5688 41.0613C97.2276 40.7471 97.0541 40.3313 97.0541 39.8054C97.0541 39.272 97.2158 38.8504 97.5347 38.536C97.8522 38.2218 98.318 38.025 98.9247 37.9475L100.276 37.779C100.383 37.7706 100.491 37.7495 100.591 37.7225C100.717 37.6887 100.821 37.6211 100.887 37.5257C100.956 37.426 100.993 37.2947 100.993 37.1519V37.0953C100.993 36.7824 100.877 36.5322 100.637 36.3534C100.395 36.1748 100.065 36.0836 99.6353 36.0836C99.2274 36.0836 98.9084 36.1803 98.6785 36.3712C98.45 36.5574 98.3106 36.8419 98.2602 37.2174H97.3508C97.3953 36.5663 97.6238 36.0791 98.0317 35.7529C98.4382 35.4281 99.0256 35.2642 99.7851 35.2642C100.5 35.2642 101.048 35.4222 101.421 35.732C101.797 36.0462 101.982 36.4993 101.982 37.0952V40.349C101.982 40.4486 102.013 40.5276 102.076 40.5889C102.138 40.6514 102.216 40.6873 102.316 40.6873C102.352 40.6873 102.395 40.6788 102.451 40.6746C102.506 40.6619 102.568 40.6535 102.636 40.6408V41.3589C102.538 41.3927 102.44 41.4261 102.328 41.4438C102.219 41.4691 102.132 41.4818 102.059 41.4818C101.685 41.4818 101.418 41.3762 101.245 41.1689C101.137 41.0316 101.055 40.8424 101.009 40.5893C100.938 40.6801 100.852 40.7697 100.758 40.8546C100.254 41.303 99.6531 41.5216 98.9381 41.5216ZM100.993 39.0205V38.374C100.809 38.4635 100.607 38.526 100.383 38.5602L99.4662 38.6882C98.993 38.7566 98.6399 38.8685 98.4263 39.0248C98.2038 39.181 98.0941 39.3943 98.0941 39.6654C98.0941 39.9961 98.1845 40.2554 98.3625 40.4282C98.5405 40.6128 98.7972 40.6964 99.128 40.6964C99.6531 40.6964 100.092 40.5562 100.45 40.2688C100.697 40.0737 100.865 39.8503 100.942 39.5969C100.956 39.5521 100.969 39.4732 100.976 39.3718C100.987 39.2662 100.993 39.1472 100.993 39.0205ZM105.998 41.3591C105.664 41.4085 105.415 41.4321 105.261 41.4321C104.826 41.4321 104.525 41.3366 104.345 41.1445C104.166 40.9536 104.077 40.6245 104.077 40.1582V36.2534H103.262V35.4385H104.077V33.7788H105.069V35.4385H105.998V36.2534H105.069V40.1582C105.069 40.2938 105.121 40.3934 105.229 40.4711C105.329 40.5518 105.473 40.589 105.648 40.589H105.998L105.998 41.3591ZM109.548 41.5216C108.714 41.5216 108.06 41.2577 107.579 40.7246C107.104 40.1972 106.866 39.4627 106.866 38.5256C106.866 37.5259 107.116 36.7363 107.625 36.1463C108.128 35.5564 108.81 35.2643 109.657 35.2643C110.429 35.2643 111.055 35.552 111.522 36.1255C112 36.7006 112.23 37.4604 112.23 38.3975L112.227 38.7505H107.92C107.959 39.3434 108.094 39.7934 108.324 40.1018C108.595 40.4789 109.039 40.6619 109.641 40.6619C110.022 40.6619 110.35 40.5564 110.637 40.3448C110.915 40.1302 111.089 39.8546 111.15 39.5254H112.132C111.982 40.1764 111.691 40.6695 111.249 41.0107C110.81 41.3532 110.237 41.5216 109.548 41.5216ZM111.2 37.9476C111.17 37.3979 111.034 36.9718 110.792 36.6635C110.522 36.3269 110.134 36.1584 109.613 36.1584C109.095 36.1584 108.675 36.3492 108.361 36.7408C108.115 37.0508 107.971 37.447 107.92 37.9476H111.2ZM113.848 40.7589V40.1585H114.436H115.02V41.1686C115.02 41.7392 114.931 42.1668 114.749 42.4529C114.569 42.7388 114.267 42.9296 113.848 43.0384V42.5095C114.08 42.4715 114.24 42.341 114.33 42.1235C114.397 41.9609 114.436 41.7021 114.452 41.3637H114.436H113.848L113.848 40.7589Z" fill="white"/>
<path d="M119.408 35.4383H119.988H120.564L122.142 40.2936L123.783 35.4383H124.323H124.872L122.676 41.3648H122.142H121.61L119.408 35.4383ZM127.425 41.5212C126.845 41.5212 126.391 41.3709 126.057 41.0624C125.716 40.7465 125.547 40.3308 125.547 39.8049C125.547 39.2716 125.704 38.85 126.021 38.5356C126.342 38.2214 126.805 38.0261 127.414 37.9471L128.766 37.7787C128.871 37.7702 128.978 37.7491 129.079 37.722C129.205 37.6883 129.304 37.6207 129.374 37.527C129.442 37.4256 129.481 37.2947 129.481 37.1515V37.0949C129.481 36.782 129.362 36.5318 129.125 36.353C128.884 36.1744 128.554 36.0848 128.123 36.0848C127.715 36.0848 127.397 36.1803 127.168 36.3707C126.94 36.557 126.8 36.8415 126.75 37.217H125.837C125.882 36.5659 126.112 36.0787 126.521 35.7525C126.926 35.4277 127.514 35.2639 128.273 35.2639C128.99 35.2639 129.537 35.4218 129.905 35.7316C130.286 36.0458 130.469 36.5003 130.469 37.0948V40.3486C130.469 40.45 130.502 40.5273 130.564 40.5902C130.619 40.6527 130.705 40.6868 130.811 40.6868C130.838 40.6868 130.878 40.6784 130.939 40.6742C130.995 40.6615 131.058 40.6531 131.123 40.6404V41.3585C131.022 41.3923 130.929 41.4256 130.823 41.4434C130.709 41.4687 130.619 41.4814 130.547 41.4814C130.173 41.4814 129.905 41.3741 129.731 41.1672C129.622 41.0316 129.54 40.8407 129.497 40.5892C129.426 40.6787 129.341 40.7695 129.24 40.8527C128.749 41.3011 128.138 41.5212 127.425 41.5212ZM129.481 39.0188V38.3721C129.295 38.4616 129.089 38.5241 128.865 38.5583L127.962 38.6863C127.483 38.7547 127.132 38.8666 126.91 39.0229C126.692 39.1808 126.581 39.3925 126.581 39.6635C126.581 39.9942 126.671 40.2535 126.855 40.4263C127.032 40.6113 127.285 40.6945 127.622 40.6945C128.138 40.6945 128.576 40.5542 128.939 40.2669C129.184 40.0718 129.353 39.8484 129.429 39.595C129.442 39.5502 129.456 39.4729 129.465 39.3699C129.476 39.2656 129.481 39.1467 129.481 39.0188ZM132.341 41.3635V33.2261H132.839H133.336V41.3635H132.839H132.341ZM136.027 35.437V39.2599C136.027 39.759 136.122 40.118 136.312 40.3355C136.508 40.5547 136.816 40.6602 137.248 40.6602C137.726 40.6602 138.109 40.4817 138.382 40.112C138.665 39.7349 138.8 39.236 138.8 38.6028V35.4369H139.297H139.795V41.3635H139.325H138.85V40.4607C138.782 40.5679 138.709 40.6676 138.634 40.763C138.206 41.2681 137.677 41.5199 137.045 41.5199C136.374 41.5199 135.873 41.3573 135.542 41.0208C135.205 40.6855 135.041 40.179 135.041 39.5056V35.4369H135.536L136.027 35.437ZM143.861 41.5199C143.031 41.5199 142.369 41.2547 141.896 40.7229C141.415 40.1954 141.181 39.461 141.181 38.5239C141.181 37.5257 141.433 36.7346 141.933 36.1446C142.437 35.5546 143.12 35.2627 143.967 35.2627C144.745 35.2627 145.364 35.5503 145.839 36.1238C146.313 36.7004 146.549 37.4586 146.549 38.3958L146.538 38.7488H142.23C142.268 39.3418 142.403 39.7918 142.632 40.1001C142.912 40.4773 143.353 40.6603 143.956 40.6603C144.332 40.6603 144.661 40.5547 144.946 40.3431C145.231 40.1286 145.403 39.8529 145.465 39.5237H146.444C146.297 40.1747 146.001 40.6679 145.56 41.0106C145.118 41.3518 144.556 41.5199 143.861 41.5199ZM145.51 37.946C145.483 37.3963 145.348 36.9702 145.106 36.6617C144.839 36.3252 144.444 36.1567 143.928 36.1567C143.403 36.1567 142.989 36.3489 142.678 36.7393C142.433 37.0492 142.28 37.4454 142.23 37.946H145.51ZM151.286 37.1549C151.26 36.8285 151.126 36.5724 150.891 36.3921C150.656 36.2135 150.331 36.1239 149.935 36.1239C149.521 36.1239 149.209 36.1894 148.994 36.3338C148.779 36.4753 148.674 36.6899 148.674 36.97C148.674 37.177 148.749 37.3349 148.902 37.4408C149.046 37.554 149.349 37.66 149.795 37.7668L150.822 38.0067C151.391 38.1469 151.802 38.3433 152.047 38.5922C152.293 38.8308 152.416 39.1747 152.416 39.6112C152.416 40.2027 152.203 40.6601 151.784 41.0027C151.357 41.3511 150.794 41.5197 150.08 41.5197C149.248 41.5197 148.626 41.3571 148.218 41.0281C147.81 40.6944 147.582 40.1789 147.542 39.4667H148.494C148.543 39.8943 148.689 40.1953 148.939 40.3875C149.185 40.572 149.565 40.6602 150.08 40.6602C150.521 40.6602 150.856 40.5766 151.087 40.4085C151.322 40.24 151.434 39.9943 151.434 39.6696C151.434 39.461 151.357 39.303 151.206 39.1973C151.058 39.0917 150.751 38.9828 150.298 38.8768L149.273 38.6369C148.717 38.503 148.327 38.3164 148.092 38.0752C147.858 37.8383 147.733 37.5091 147.733 37.0756C147.733 36.5213 147.935 36.0774 148.327 35.7511C148.723 35.4264 149.258 35.2625 149.935 35.2625C150.62 35.2625 151.163 35.4322 151.572 35.7675C151.979 36.0999 152.191 36.5645 152.221 37.1545L151.286 37.1549Z" fill="white"/>
<path d="M156.797 35.438H157.266H157.739V36.2797L157.783 36.2083C158.215 35.5796 158.774 35.2638 159.466 35.2638C160.237 35.2638 160.847 35.5273 161.298 36.0623C161.752 36.5942 161.976 37.3198 161.976 38.2271C161.976 39.2535 161.746 40.0625 161.293 40.645C160.839 41.2275 160.209 41.521 159.405 41.521C158.74 41.521 158.215 41.2694 157.819 40.7508L157.783 40.7077V43.7038H157.292H156.797V35.438ZM159.353 40.6613C159.875 40.6613 160.271 40.4615 160.531 40.0728C160.804 39.6809 160.936 39.1029 160.936 38.3506C160.936 37.6101 160.813 37.0604 160.55 36.7073C160.292 36.3496 159.897 36.1694 159.36 36.1694C158.811 36.1694 158.415 36.3705 158.165 36.7743C157.912 37.1721 157.783 37.8128 157.783 38.6873C157.783 39.316 157.918 39.8046 158.193 40.1473C158.467 40.4885 158.851 40.6613 159.353 40.6613ZM163.461 41.3645V35.438H163.931H164.404V36.454C164.489 36.2977 164.578 36.1516 164.674 36.0205C165.046 35.5169 165.512 35.2637 166.058 35.2637C166.149 35.2637 166.243 35.2848 166.338 35.3156V36.3302L166.138 36.3259C165.595 36.3259 165.181 36.4881 164.891 36.8087C164.601 37.1334 164.45 37.5923 164.45 38.1942V41.3645H163.959H163.461ZM169.663 41.5208C168.847 41.5208 168.181 41.2348 167.679 40.6611C167.177 40.0846 166.926 39.3262 166.926 38.3966C166.926 37.4595 167.177 36.7012 167.679 36.1246C168.181 35.551 168.847 35.2635 169.663 35.2635C170.483 35.2635 171.148 35.5511 171.651 36.1246C172.152 36.7012 172.404 37.4595 172.404 38.3966C172.404 39.3262 172.152 40.0846 171.651 40.6611C171.148 41.2347 170.483 41.5208 169.663 41.5208ZM169.663 40.6611C170.18 40.6611 170.594 40.4614 170.901 40.0503C171.213 39.6419 171.367 39.0923 171.367 38.3966C171.367 37.6994 171.213 37.1511 170.901 36.7399C170.594 36.3256 170.18 36.1246 169.663 36.1246C169.138 36.1246 168.724 36.3256 168.421 36.7399C168.114 37.1512 167.957 37.6994 167.957 38.3966C167.957 39.0923 168.114 39.6421 168.421 40.0503C168.724 40.4616 169.138 40.6611 169.663 40.6611ZM175.874 41.3584C175.534 41.4074 175.294 41.4314 175.137 41.4314C174.706 41.4314 174.399 41.336 174.221 41.1439C174.042 40.953 173.954 40.6239 173.954 40.1575V36.2527H173.138V35.4378H173.954V33.7783H174.947V35.438H175.874V36.2529H174.947V40.1577C174.947 40.2933 174.997 40.393 175.098 40.4719C175.205 40.5509 175.344 40.5897 175.524 40.5897H175.874L175.874 41.3584ZM179.424 41.521C178.59 41.521 177.937 41.2557 177.457 40.7239C176.982 40.1965 176.74 39.462 176.74 38.525C176.74 37.5267 176.991 36.7356 177.5 36.1456C178.004 35.5557 178.679 35.2637 179.534 35.2637C180.306 35.2637 180.927 35.5513 181.4 36.1248C181.874 36.7014 182.109 37.4597 182.109 38.3968L182.098 38.7499H177.795C177.835 39.3428 177.968 39.7928 178.2 40.1012C178.474 40.4783 178.913 40.6613 179.517 40.6613C179.897 40.6613 180.228 40.5557 180.513 40.3442C180.79 40.1296 180.963 39.854 181.023 39.5247H182.009C181.858 40.1758 181.569 40.669 181.127 41.0116C180.685 41.3529 180.117 41.521 179.424 41.521ZM181.076 37.9471C181.049 37.3973 180.907 36.9712 180.665 36.6628C180.4 36.3262 180.011 36.1578 179.49 36.1578C178.967 36.1578 178.551 36.3499 178.237 36.7403C177.992 37.0503 177.842 37.4465 177.795 37.9471H181.076ZM188.124 39.2328C188.025 39.9792 187.758 40.5453 187.339 40.9386C186.915 41.3259 186.357 41.5211 185.653 41.5211C184.869 41.5211 184.243 41.2411 183.779 40.6734C183.31 40.1132 183.077 39.3504 183.077 38.397C183.077 37.442 183.316 36.6777 183.803 36.1116C184.283 35.5454 184.939 35.2639 185.752 35.2639C186.461 35.2639 187.025 35.4547 187.449 35.8494C187.869 36.2353 188.097 36.7745 188.124 37.4539H187.173C187.132 37.0324 186.988 36.7015 186.73 36.4721C186.479 36.2411 186.145 36.125 185.719 36.125C185.217 36.125 184.825 36.326 184.54 36.7299C184.261 37.1336 184.117 37.6893 184.117 38.397C184.117 39.1479 184.249 39.714 184.513 40.0954C184.776 40.4784 185.171 40.6615 185.691 40.6615C186.074 40.6615 186.4 40.5394 186.655 40.2936C186.921 40.0449 187.087 39.6933 187.173 39.2329L188.124 39.2328ZM191.456 41.3588C191.119 41.4077 190.876 41.4318 190.719 41.4318C190.29 41.4318 189.983 41.3363 189.803 41.1442C189.624 40.9533 189.533 40.6242 189.533 40.1579V36.2531H188.719V35.4382H189.533V33.7783H190.529V35.438H191.456V36.2529H190.529V40.1577C190.529 40.2933 190.579 40.393 190.686 40.4719C190.785 40.5509 190.932 40.5897 191.106 40.5897H191.456L191.456 41.3588Z" fill="white"/>
</g>
<defs>
<clipPath id="clip0_4347_1919">
<rect width="200" height="50" fill="white"/>
</clipPath>
</defs>
</svg>
