<svg width="200" height="81" viewBox="0 0 200 81" fill="none" xmlns="http://www.w3.org/2000/svg">
<g clip-path="url(#clip0_4405_1793)">
<path fill-rule="evenodd" clip-rule="evenodd" d="M4.48656 27.8183C5.41357 16.9897 0 13.7074 0 13.7074C0 13.7074 1.27673 18.3005 0.344185 30.0808C-0.292122 38.114 2.60169 44.339 4.28404 48.1852C4.52276 48.7313 5.33604 48.3077 5.18424 47.741C3.66063 42.0523 3.7198 36.7716 4.48656 27.8183ZM30.455 79.0096C37.5581 72.5979 47.6646 53.5011 47.8496 39.0218C46.2091 39.5017 42.9556 41.2338 41.7526 46.586C41.0615 49.6609 39.1144 56.922 31.9457 56.2965C22.0057 55.4287 23.4472 36.8318 39.0122 38.5179C46.368 39.3145 47.5635 34.0769 47.5635 33.376C45.9507 34.1082 43.5231 33.8039 41.2422 33.5322C27.2174 31.8639 20.4854 39.8109 20.4854 48.8798C20.4854 54.3249 24.0607 58.9012 28.0943 61.4442C30.2383 62.796 28.6959 64.1187 27.1026 62.9812C22.8615 59.9527 17.9078 55.9504 17.9078 47.4192C17.9078 33.1774 32.5926 26.9899 36.0415 24.4447C41.1602 20.6681 43.6256 17.5515 42.3774 11.9953C40.3524 15.6857 35.3787 18.9091 31.6669 20.8616C21.6372 26.1378 13.7756 33.8188 13.7756 45.0995C13.7756 53.9727 17.7139 58.8493 22.4467 62.6264C23.5194 63.4826 22.3822 64.6803 21.008 63.5843C13.4781 57.5794 10.9914 50.9253 10.9914 42.3783C10.9914 26.2311 31.5667 11.6303 22.3148 0C22.4428 11.8743 6.92785 22.2454 6.92785 41.8897C6.92785 50.7091 10.5068 59.4639 20.4833 66.3869C26.3604 70.4645 27.1935 75.1363 26.333 79.3664C25.9483 81.6504 28.7426 80.5552 30.455 79.0096Z" fill="#F26841"/>
<path fill-rule="evenodd" clip-rule="evenodd" d="M88.0735 23.9818C86.5628 23.9818 85.2248 25.0861 85.02 26.5916C84.7502 28.582 86.5674 30.3121 88.5615 29.9901C90.3305 29.705 91.5154 27.8968 91.0315 26.1793C90.6629 24.8718 89.4213 23.9818 88.0735 23.9818ZM200 24.1572C199.715 24.0629 198.418 23.9805 197.922 23.9805C195.209 23.9805 193.854 24.9773 193.854 27.3331V54.4431C194.185 54.5488 195.844 54.6539 196.233 54.6184C198.754 54.5512 200 53.5416 200 51.2747V24.1572ZM95.8755 54.4431C96.2052 54.5488 97.8653 54.6539 98.2552 54.6184C100.775 54.5512 102.022 53.5416 102.022 51.2747V40.4752C102.022 38.1279 105.579 36.4745 108.665 39.045C109.421 37.7956 110.156 35.8313 110.156 34.6789C110.156 32.1955 104.851 31.1026 101.749 35.196C101.18 32.849 98.2937 32.6975 95.8755 33.0974V54.4431ZM160.676 42.9639C160.676 40.2274 160.619 39.4824 160.399 38.8854C159.438 36.2917 153.914 37.0738 153.914 39.734V51.2747C153.914 53.5416 152.668 54.5512 150.148 54.6184C149.758 54.6539 148.099 54.5488 147.768 54.4431L147.77 42.9639C147.77 40.2274 147.713 39.4824 147.492 38.8854C146.531 36.2917 141.006 37.0738 141.006 39.734V51.2747C141.006 53.5416 139.76 54.5512 137.24 54.6184C136.85 54.6539 135.19 54.5488 134.86 54.4431V33.0978C137.381 32.7439 140.165 32.7773 140.687 35.2174C143.139 31.7738 151.501 30.9995 153.098 36.1478C154.585 33.3512 157.858 32.2406 160.974 32.5052C166.266 32.9542 166.801 37.2378 166.821 42.4687L166.822 51.2747C166.822 53.5416 165.576 54.5512 163.056 54.6184C162.666 54.6539 161.006 54.5488 160.676 54.4431V42.9639ZM91.1402 51.2743C91.1402 53.5418 89.8937 54.5513 87.3737 54.6187C86.9841 54.6533 85.3242 54.5486 84.9939 54.4429V36.266C84.9939 33.9987 86.2402 32.9895 88.7602 32.9218C89.15 32.887 90.8098 32.9915 91.1402 33.0978V51.2743ZM66.9783 39.2236V28.4854C71.3016 28.0798 75.1559 28.8594 75.1559 33.4065C75.1559 39.1225 71.1559 39.2236 66.9783 39.2236ZM68.9672 23.9807H60.8281V54.4431C61.1583 54.5488 62.8176 54.6539 63.2078 54.6189C65.7283 54.5513 66.9742 53.5416 66.9742 51.2743V43.56H69.2765C76.2915 43.56 81.4846 40.485 81.4846 33.0952C81.4846 26.0752 75.5046 23.9807 68.9672 23.9807ZM124.283 49.0183C123.046 50.1794 121.733 50.8056 120.127 50.8056C116.309 50.8056 116.142 46.6093 118.41 45.1023C119.833 44.1555 122.445 43.87 124.283 43.87V49.0183ZM130.162 40.6521C130.162 34.7089 127.372 32.4669 121.299 32.4669C116.774 32.4669 112.531 34.1198 112.531 35.7774C112.531 36.3462 113.067 37.8302 113.933 38.8188C116.069 37.6061 117.911 36.7615 120.352 36.7615C124.221 36.7615 124.283 38.5189 124.283 40.6945C117.945 40.6945 111.175 42.0149 111.175 48.2569C111.175 52.4293 113.7 54.977 118.095 54.977C121.156 54.977 122.851 53.8638 124.734 52.6482C125.538 55.2019 129.173 54.8409 131.078 54.0009C130.357 52.8599 130.162 51.6352 130.162 48.9031V40.6521ZM183.346 49.0183C182.109 50.1794 180.796 50.8056 179.189 50.8056C175.371 50.8056 175.205 46.6093 177.472 45.1023C178.895 44.1555 181.508 43.87 183.346 43.87V49.0183ZM189.224 40.6521C189.224 34.7089 186.433 32.4669 180.362 32.4669C175.837 32.4669 171.594 34.1198 171.594 35.7774C171.594 36.3462 172.13 37.8302 172.996 38.8188C175.132 37.6061 176.974 36.7615 179.414 36.7615C183.284 36.7615 183.346 38.5189 183.346 40.6945C177.008 40.6945 170.237 42.0149 170.237 48.2569C170.237 52.4293 172.762 54.977 177.157 54.977C180.218 54.977 181.913 53.8638 183.796 52.6482C184.601 55.2019 188.235 54.8409 190.141 54.0009C189.418 52.8599 189.224 51.6352 189.224 48.9031V40.6521Z" fill="#365069"/>
<path fill-rule="evenodd" clip-rule="evenodd" d="M61.8407 80.8593C62.5729 80.8593 63.1645 80.2461 63.1645 79.5492V72.2737H70.3192C70.9107 72.2737 71.3895 71.7999 71.3895 71.2144C71.3895 70.629 70.9107 70.1554 70.3192 70.1554H63.1645V64.4406H71.5305C72.1501 64.4406 72.629 63.9946 72.629 63.3814C72.629 62.7682 72.1501 62.2943 71.5305 62.2943H61.8407C61.052 62.2943 60.5449 62.8517 60.5449 63.6045V79.5492C60.5449 80.2461 61.1083 80.8593 61.8407 80.8593ZM75.474 64.8867C76.3471 64.8867 77.0233 64.2177 77.0233 63.3534C77.0233 62.4893 76.3471 61.7925 75.474 61.7925C74.6008 61.7925 73.9247 62.4893 73.9247 63.3534C73.9247 64.2177 74.6008 64.8867 75.474 64.8867ZM75.474 80.8593C76.1501 80.8593 76.7133 80.3019 76.7133 79.6329V68.3154C76.7133 67.6464 76.1501 67.089 75.474 67.089C74.7979 67.089 74.2344 67.6464 74.2344 68.3154V79.6329C74.2344 80.3019 74.7979 80.8593 75.474 80.8593ZM81.2762 80.8593C81.9523 80.8593 82.516 80.3019 82.516 79.6329V70.4617C82.516 70.2388 82.544 70.1272 82.7695 70.0158C83.6144 69.5976 85.0792 69.2629 86.2905 69.2629H86.3184C87.417 69.2629 88.3749 69.4582 88.9101 69.988C89.389 70.4617 89.6144 71.0471 89.6144 72.3017V79.6329C89.6144 80.3019 90.1775 80.8593 90.8538 80.8593C91.5297 80.8593 92.0929 80.3019 92.0929 79.6329V72.1901C92.0929 70.3503 91.6142 69.2075 90.741 68.3712C89.8116 67.4791 88.3749 66.9494 86.741 66.9494C85.5297 66.9494 84.206 67.3953 83.1357 67.9251L82.516 68.2318C82.4597 67.5906 81.9244 67.089 81.2762 67.089C80.6003 67.089 80.0371 67.6464 80.0371 68.3154V79.6329C80.0371 80.3019 80.6003 80.8593 81.2762 80.8593ZM100.403 80.9987C101.642 80.9987 102.684 80.692 104.065 79.9674L104.853 79.5492V79.6329C104.853 80.3019 105.416 80.8593 106.093 80.8593C106.768 80.8593 107.332 80.3019 107.332 79.6329V68.3154C107.332 67.6464 106.768 67.089 106.093 67.089C105.416 67.089 104.853 67.6464 104.853 68.3154V68.3432L104.149 67.9809C102.881 67.3119 101.783 66.9494 100.515 66.9494C97.4168 66.9494 94.2901 69.514 94.2901 74.0297C94.2901 78.1552 96.769 80.9987 100.403 80.9987ZM100.825 78.7408C98.3746 78.7408 96.8534 77.375 96.8534 74.0019C96.8534 70.7406 98.3746 69.2075 100.966 69.2075C102.121 69.2075 103.417 69.5698 104.515 70.1272C104.797 70.2666 104.853 70.3781 104.853 70.7126V77.2355C104.853 77.542 104.797 77.6538 104.543 77.7929C103.586 78.3226 102.065 78.7408 100.825 78.7408ZM111.867 80.8593C112.543 80.8593 113.106 80.3019 113.106 79.6329V70.4617C113.106 70.2388 113.135 70.1272 113.36 70.0158C114.205 69.5976 115.67 69.2629 116.881 69.2629H116.909C118.008 69.2629 118.965 69.4582 119.5 69.988C119.979 70.4617 120.205 71.0471 120.205 72.3017V79.6329C120.205 80.3019 120.768 80.8593 121.444 80.8593C122.12 80.8593 122.684 80.3019 122.684 79.6329V72.1901C122.684 70.3503 122.205 69.2075 121.331 68.3712C120.402 67.4791 118.965 66.9494 117.332 66.9494C116.12 66.9494 114.797 67.3953 113.726 67.9251L113.106 68.2318C113.05 67.5906 112.515 67.089 111.867 67.089C111.191 67.089 110.628 67.6464 110.628 68.3154V79.6329C110.628 80.3019 111.191 80.8593 111.867 80.8593ZM131.725 80.9987C133.613 80.9987 135.331 80.3855 136.486 79.5771C137.021 79.1869 137.275 78.88 137.275 78.4343C137.275 77.8765 136.852 77.4584 136.317 77.4584C136.007 77.4584 135.782 77.542 135.331 77.7653C133.923 78.4621 132.852 78.7686 131.866 78.7686C130.43 78.7686 129.359 78.3505 128.627 77.57C127.866 76.7337 127.444 75.4237 127.444 73.8626C127.444 72.2179 128.035 70.9355 128.852 70.1272C129.528 69.4582 130.543 69.1237 131.472 69.1237C132.57 69.1237 133.528 69.514 134.57 70.4899L135.049 70.9355C135.387 71.2424 135.641 71.4932 136.091 71.4932C136.711 71.4932 137.162 71.0193 137.162 70.4617C137.162 70.183 137.049 69.8763 136.739 69.4862C135.472 67.8693 133.585 66.9494 131.556 66.9494C129.951 66.9494 128.289 67.5348 127.106 68.6223C125.782 69.8485 124.881 71.6883 124.881 73.9186C124.881 76.0649 125.585 77.9045 126.881 79.1869C128.035 80.3297 129.613 80.9987 131.725 80.9987ZM145.33 80.9987C147.049 80.9987 148.88 80.3855 149.979 79.6049C150.767 79.0473 150.936 78.713 150.936 78.2668C150.936 77.7095 150.542 77.3469 149.979 77.3469C149.668 77.3469 149.415 77.4584 148.936 77.7095C147.528 78.4621 146.457 78.7686 145.274 78.7686C144.007 78.7686 142.965 78.3783 142.26 77.6814C141.5 76.929 141.021 75.8695 140.908 74.6152H150.176C150.964 74.6152 151.33 74.2529 151.33 73.3887C151.33 69.8207 148.683 66.9494 144.936 66.9494C141.218 66.9494 138.317 69.7651 138.317 73.9741C138.317 76.0649 139.049 77.9045 140.345 79.1869C141.5 80.3297 143.021 80.9987 145.33 80.9987ZM140.88 72.7198C141.133 70.4617 142.711 69.1517 144.964 69.1517C147.246 69.1517 148.711 70.6011 148.88 72.7198H140.88Z" fill="#365069"/>
</g>
<defs>
<clipPath id="clip0_4405_1793">
<rect width="200" height="81" fill="white"/>
</clipPath>
</defs>
</svg>
