<svg width="200" height="51" viewBox="0 0 200 51" fill="none" xmlns="http://www.w3.org/2000/svg">
<path d="M199.985 0C199.777 2.18892 199.575 4.37784 199.352 6.56676C198.907 10.9235 198.448 15.2732 197.996 19.6299C197.53 24.1274 197.063 28.6178 196.597 33.1646H186.433C186.502 32.4326 186.558 31.7006 186.635 30.9757C187.17 26.3022 183.163 21.6429 177.207 23.7332C172.755 25.2957 170.362 30.7786 172.052 35.2409C173.221 38.3237 176.192 40.0058 179.524 39.4639C179.684 39.4357 179.837 39.4146 180.081 39.3865C179.796 42.1244 179.517 44.7989 179.232 47.5228C177.715 48.0647 176.157 48.2829 174.578 48.2407C166.785 48.0014 162.43 42.0681 161.637 35.7617C160.914 30.0114 162.284 24.8242 166.055 20.4041C169.193 16.7301 173.186 14.6608 178.021 14.5764C181.973 14.506 185.375 15.7729 187.581 19.3765C187.615 19.4328 187.678 19.468 187.81 19.5947C187.936 18.4334 188.068 17.3495 188.179 16.2726C188.715 11.0361 189.25 5.80662 189.793 0.570105C189.814 0.38007 189.87 0.197073 189.911 0.0140766H199.999L199.985 0Z" fill="#F37B20"/>
<path d="M15.7651 0C15.6051 1.80885 15.466 3.6177 15.2781 5.42655C14.7354 10.7334 14.1789 16.0333 13.6223 21.3402C13.0796 26.5486 12.523 31.7569 11.9804 36.9653C11.6186 40.4141 11.2638 43.8629 10.895 47.4242H0V47.1357C0.0417435 47.009 0.118273 46.8823 0.132188 46.7556C0.855741 39.7947 1.57234 32.8268 2.30285 25.8588C3.10293 18.18 3.90302 10.5012 4.71701 2.82941C4.81441 1.88627 4.98139 0.950174 5.11358 0.00703832H15.7651V0Z" fill="#F37B20"/>
<path d="M188.478 50.2953C187.149 49.9012 185.925 49.3592 185.02 48.219C182.683 45.277 183.573 40.7091 186.913 38.5483C189.515 36.8662 192.861 37.007 194.892 38.8791C197.286 41.0962 197.383 45.0306 195.108 47.6841C194.037 48.9299 192.708 49.7463 191.122 50.1405C190.989 50.1757 190.871 50.239 190.746 50.2883H188.471L188.478 50.2953Z" fill="#F37B20"/>
<path d="M97.0664 34.1222C96.0646 36.5363 94.7218 38.6619 92.9964 40.5271C88.2724 45.651 82.3657 48.0792 75.4989 48.2762C71.5542 48.3889 67.7625 47.7202 64.263 45.8058C58.6137 42.716 55.4899 37.7962 54.4324 31.4969C52.7279 21.3265 57.7301 10.959 66.6632 5.97591C70.3784 3.8996 74.3858 2.9072 78.6158 2.80162C82.324 2.71012 85.9348 3.19577 89.3091 4.84274C94.9584 7.59472 97.9639 12.2541 98.8544 18.5041H88.4185C87.8272 17.4343 87.361 16.2871 86.6445 15.3439C84.7451 12.8383 82.0457 11.9585 79.0332 11.8599C70.8724 11.5855 65.3762 17.744 64.4648 24.726C64.103 27.5202 64.3534 30.2229 65.5501 32.7849C67.7903 37.5921 72.3821 39.6825 77.3565 39.1616C80.8699 38.7956 83.7433 37.212 85.907 34.3615C86.0322 34.1996 86.2827 34.0518 86.4775 34.0518C89.9352 34.0377 93.386 34.0448 96.8438 34.0518C96.8855 34.0518 96.9342 34.0799 97.0664 34.1292V34.1222Z" fill="#F37B20"/>
<path d="M135.249 33.8889C134.373 36.8309 136.397 40.1459 139.424 40.7653C141.094 41.1102 142.77 41.0468 144.391 40.4556C145.741 39.9629 146.722 39.0409 147.432 37.7881C147.557 37.5699 147.863 37.3095 148.093 37.3095C151.147 37.2813 154.201 37.2884 157.248 37.2954C157.318 37.2954 157.38 37.3236 157.575 37.3658C157.29 38.1119 157.06 38.8579 156.726 39.5477C155.036 43.0598 152.253 45.3824 148.733 46.8042C144.426 48.5356 139.966 48.8101 135.5 47.6629C130.115 46.2833 126.734 42.7783 125.676 37.2321C124.494 31.0031 125.69 25.2739 129.865 20.3964C132.766 17.0039 136.557 15.2232 140.913 14.6742C144.537 14.2167 148.106 14.4771 151.453 16.0889C155.961 18.2638 158.341 21.9659 158.807 26.9631C159.002 29.0887 158.675 31.1509 158.139 33.2061C157.993 33.7622 157.77 33.9029 157.227 33.9029C150.173 33.8818 143.125 33.8889 136.07 33.8889H135.249ZM148.927 27.9696C149.366 25.3162 148.232 22.9302 146.082 21.9237C143.209 20.5723 139.312 21.4662 137.316 23.9578C136.39 25.1121 135.89 26.4423 135.771 27.9696H148.92H148.927Z" fill="#F37B20"/>
<path d="M26.3614 47.3889H16.2734C17.3866 36.7329 18.4998 26.105 19.6129 15.4349H29.6592C29.52 16.8215 29.3809 18.208 29.2209 19.7846C29.4644 19.489 29.5966 19.3342 29.7218 19.1793C32.129 16.1177 35.378 14.8156 39.128 14.5974C41.8205 14.4425 44.4433 14.7311 46.7323 16.3288C49.3691 18.1799 50.3013 20.9319 50.2457 24.0076C50.197 26.8018 49.9256 29.5961 49.6613 32.3762C49.1951 37.2326 48.6594 42.082 48.1515 46.9385C48.1376 47.0793 48.1168 47.213 48.0959 47.3819H38.0427C38.1053 46.6218 38.1609 45.8757 38.2375 45.1296C38.7384 40.3717 39.295 35.6209 39.7124 30.8559C39.8376 29.4271 39.7402 27.928 39.4619 26.5203C39.0445 24.4651 37.5557 23.3671 35.5033 23.2616C32.3308 23.0997 29.9305 24.627 28.873 27.7802C28.3234 29.4131 28.066 31.1656 27.8642 32.89C27.3146 37.6901 26.8624 42.4973 26.3614 47.3819V47.3889Z" fill="#F37B20"/>
<path d="M109.242 47.3901H99.1543C100.274 36.706 101.388 26.064 102.501 15.4009H112.547C112.387 16.9916 112.22 18.5682 112.039 20.3559C113.716 17.984 115.789 16.4708 118.287 15.5487C120.784 14.6267 123.345 14.6901 126.044 15.0912C125.467 18.2444 124.889 21.3835 124.298 24.5648C123.449 24.4381 122.642 24.2551 121.828 24.2129C118.224 24.0088 114.982 24.7689 112.763 27.9714C111.65 29.5691 111.037 31.392 110.794 33.2994C110.307 37.1705 109.924 41.0486 109.5 44.9267C109.409 45.7361 109.326 46.5385 109.235 47.3831L109.242 47.3901Z" fill="#F37B20"/>
</svg>
