<svg width="200" height="44" viewBox="0 0 200 44" fill="none" xmlns="http://www.w3.org/2000/svg">
<path fill-rule="evenodd" clip-rule="evenodd" d="M7.55902 11.318C12.7549 2.87673 19.0415 0.690272 21.5724 6.46273C24.0776 12.2352 21.8662 23.8681 16.6714 32.3093C11.4765 40.7912 5.18789 42.9793 2.65696 37.2069C0.153865 31.3887 2.36417 19.8015 7.55902 11.318Z" fill="#EF7D00"/>
<path fill-rule="evenodd" clip-rule="evenodd" d="M10.9968 6.81159C10.437 7.5122 9.85042 8.29913 9.29166 9.21636C4.73496 16.6084 2.84424 26.7081 5.08135 31.7833C7.39887 36.8551 12.9937 35.0207 17.6298 27.5407C20.1339 23.562 21.8123 18.8828 22.5051 14.5962C22.7185 11.4045 22.4246 8.60374 21.5721 6.46128C19.5741 1.95805 15.2855 2.30836 10.9968 6.81159Z" fill="#AD2221"/>
<path fill-rule="evenodd" clip-rule="evenodd" d="M13.581 36.5063C11.1573 39.5236 8.62537 41.0112 6.17383 40.3529C7.213 40.4426 8.03981 38.5607 8.73156 36.0696C9.42537 33.4889 9.82434 31.0841 10.1707 28.8536C10.6511 25.3083 10.6769 22.7732 10.4377 22.2046C10.0109 21.3313 9.07795 21.5496 8.01197 22.5549C7.48001 23.0372 6.813 22.7309 7.613 21.113C8.43878 19.4952 11.6615 15.6046 12.8336 14.9903C14.113 14.3776 15.579 15.2103 15.0718 17.527C14.7274 19.1872 10.2511 38.5184 13.581 36.5063ZM17.2573 6.54902C17.8697 7.55594 17.4975 9.7424 16.4584 11.4483C15.4192 13.1101 14.0604 13.7227 13.4738 12.7598C12.8336 11.7529 13.2078 9.5681 14.247 7.81825C15.313 6.1124 16.6718 5.58779 17.2573 6.54902Z" fill="white"/>
<path d="M22.5625 40.4273L25.545 22.0776H29.5099L26.5285 40.4273H22.5625Z" fill="#00447C"/>
<path d="M39.1349 27.9921C39.174 27.1054 39.0462 26.4369 38.7493 25.9867C38.4503 25.54 37.9895 25.3166 37.3565 25.3166C36.3503 25.3166 35.4947 25.8209 34.7864 26.8295C34.0802 27.8364 33.5771 29.2664 33.2751 31.1263C32.9833 32.9184 33.0287 34.2943 33.406 35.2538C33.7833 36.2167 34.4679 36.6991 35.4617 36.6991C36.1885 36.6991 36.8142 36.4215 37.338 35.8681C37.8586 35.3215 38.2596 34.5092 38.539 33.4397H42.6441C42.105 35.8444 41.1802 37.618 39.872 38.7637C38.5617 39.906 36.7874 40.4797 34.5534 40.4797C32.3977 40.4797 30.8503 39.6809 29.9039 38.0817C28.9617 36.4824 28.7246 34.2401 29.1905 31.37C29.7019 28.2291 30.7163 25.8023 32.2349 24.0998C33.7555 22.3974 35.6689 21.5444 37.9699 21.5444C39.9679 21.5444 41.407 22.0843 42.2885 23.1674C43.1668 24.2487 43.4802 25.8581 43.2225 27.9904L39.1349 27.9921Z" fill="#00447C"/>
<path d="M42.5977 40.4273L45.5812 22.0776H49.5461L46.5636 40.4273H42.5977Z" fill="#00447C"/>
<path d="M59.1681 27.9921C59.2093 27.1054 59.0794 26.4369 58.7825 25.9867C58.4846 25.54 58.0217 25.3166 57.3897 25.3166C56.3835 25.3166 55.5279 25.8209 54.8186 26.8295C54.1134 27.8364 53.6103 29.2664 53.3072 31.1263C53.0165 32.9184 53.0608 34.2943 53.4392 35.2538C53.8165 36.2167 54.5011 36.6991 55.4949 36.6991C56.2217 36.6991 56.8474 36.4215 57.3712 35.8681C57.8928 35.3215 58.2928 34.5092 58.5722 33.4397H62.6763C62.1382 35.8444 61.2134 37.618 59.9052 38.7637C58.5938 39.906 56.8206 40.4797 54.5877 40.4797C52.431 40.4797 50.8825 39.6809 49.9371 38.0817C48.9949 36.4824 48.7578 34.2401 49.2237 31.37C49.7351 28.2291 50.7495 25.8023 52.2701 24.0998C53.7897 22.3974 55.7031 21.5444 58.0041 21.5444C60.0021 21.5444 61.4423 22.0843 62.3237 23.1674C63.2021 24.2487 63.5145 25.8581 63.2578 27.9904L59.1681 27.9921Z" fill="#00447C"/>
<path d="M62.6309 40.4273L65.6144 22.0776H69.5803L66.5968 40.4273H62.6309Z" fill="#00447C"/>
<path d="M74.8926 40.4273H72.2812L75.2637 22.0776H77.8771L76.6792 29.4426H82.8596L84.0575 22.0776H86.6689L83.6854 40.4273H81.074L82.3782 32.4041H76.1977L74.8926 40.4273Z" fill="#00447C"/>
<path d="M96.9132 34.0303C96.5699 36.144 95.8534 37.7923 94.7657 38.9702C93.6771 40.1463 92.3255 40.7353 90.708 40.7353C89.0998 40.7353 87.9389 40.1463 87.2297 38.9651C86.5204 37.7788 86.3369 36.1373 86.6781 34.0303C87.0214 31.9251 87.7379 30.2802 88.8338 29.0956C89.9276 27.9143 91.2802 27.3237 92.8884 27.3237C94.5049 27.3237 95.6657 27.9143 96.3709 29.0922C97.0771 30.2683 97.2575 31.9167 96.9132 34.0303ZM89.2276 34.0303C89.0307 35.2471 89.1059 36.2473 89.4616 37.0207C89.8163 37.7974 90.3709 38.1833 91.1286 38.1833C91.8833 38.1833 92.5657 37.7974 93.1719 37.0207C93.7812 36.2473 94.1843 35.2471 94.3833 34.0303C94.5802 32.8119 94.5018 31.8134 94.1441 31.04C93.7905 30.2633 93.2328 29.8757 92.4781 29.8757C91.7214 29.8757 91.04 30.2633 90.4338 31.04C89.8266 31.8151 89.4255 32.8136 89.2276 34.0303Z" fill="#00447C"/>
<path d="M110.513 40.4273L111.601 33.7461C111.811 32.4515 111.811 31.4784 111.602 30.8302C111.394 30.1787 110.975 29.8538 110.346 29.8538C109.702 29.8538 109.103 30.2312 108.555 30.991C108.009 31.7492 107.639 32.7155 107.449 33.8815L106.386 40.4273H104.049L105.137 33.7461C105.344 32.4599 105.344 31.4919 105.137 30.8336C104.928 30.1787 104.512 29.8538 103.889 29.8538C103.251 29.8538 102.654 30.2362 102.104 30.9995C101.553 31.7576 101.181 32.7256 100.993 33.8815L99.9295 40.4273H97.5449L99.016 31.3802C99.047 31.1907 99.1016 30.7862 99.1789 30.1618C99.2573 29.5373 99.3583 28.6979 99.4831 27.6368H101.781L101.506 29.8538C101.995 29.0076 102.538 28.3781 103.13 27.9652C103.724 27.5556 104.391 27.3525 105.128 27.3525C105.886 27.3525 106.483 27.5641 106.927 27.9939C107.374 28.4221 107.649 29.0516 107.76 29.8792C108.323 28.9992 108.899 28.3595 109.479 27.9533C110.059 27.5505 110.705 27.3525 111.413 27.3525C112.006 27.3525 112.519 27.4896 112.952 27.7621C113.382 28.0362 113.718 28.4339 113.953 28.9568C114.151 29.4036 114.263 29.9215 114.287 30.4985C114.31 31.0807 114.235 31.9184 114.056 33.0133L112.85 40.4273H110.513Z" fill="#00447C"/>
<path d="M117.824 35.0051L117.802 35.127C117.63 36.1897 117.709 37.002 118.038 37.5757C118.367 38.1494 118.918 38.4354 119.695 38.4354C120.231 38.4354 120.692 38.251 121.079 37.8837C121.469 37.5148 121.744 36.9953 121.912 36.3251H124.261C123.918 37.7179 123.304 38.806 122.417 39.5862C121.531 40.3731 120.466 40.764 119.223 40.764C117.681 40.764 116.571 40.187 115.897 39.0379C115.222 37.8888 115.05 36.2845 115.384 34.23C115.732 32.0893 116.438 30.402 117.5 29.1717C118.563 27.9397 119.849 27.3237 121.361 27.3237C122.854 27.3237 123.883 27.9279 124.447 29.1294C125.011 30.331 125.102 32.1197 124.717 34.4923L124.634 35.0034L117.824 35.0051ZM118.189 32.7662L122.588 32.7527C122.718 31.7897 122.637 31.062 122.35 30.5645C122.061 30.072 121.566 29.825 120.868 29.825C120.245 29.825 119.696 30.0839 119.219 30.6017C118.744 31.123 118.399 31.8439 118.189 32.7662Z" fill="#00447C"/>
<path d="M128.943 40.4273L131.927 22.0776H141.167L140.714 24.8615H134.012L133.276 29.3901H139.435L138.967 32.2772H132.806L131.483 40.4273H128.943Z" fill="#00447C"/>
<path d="M139.656 40.4273L141.737 27.6369H144.238L142.157 40.4273H139.656ZM145.219 22.0776L144.68 25.3963H142.02L142.561 22.0776H145.219Z" fill="#00447C"/>
<path d="M144.525 40.4273L145.996 31.3802C146.035 31.1433 146.094 30.7101 146.172 30.0856C146.249 29.4645 146.347 28.6438 146.463 27.6368H148.833L148.567 29.8538C149.073 29.0161 149.64 28.3882 150.259 27.977C150.881 27.559 151.568 27.3525 152.325 27.3525C153.499 27.3525 154.336 27.8112 154.839 28.7284C155.342 29.6439 155.461 30.9284 155.194 32.5784L153.918 40.4273H151.568L152.653 33.7461C152.864 32.4515 152.845 31.4784 152.594 30.8302C152.35 30.1787 151.876 29.8538 151.179 29.8538C150.451 29.8538 149.785 30.2312 149.181 30.991C148.577 31.7492 148.182 32.7155 147.992 33.8815L146.927 40.4273H144.525Z" fill="#00447C"/>
<path d="M162.009 40.4273L162.225 38.6707C161.75 39.3527 161.218 39.8671 160.628 40.2157C160.037 40.5627 159.401 40.737 158.718 40.737C157.673 40.737 156.909 40.363 156.423 39.6167C155.941 38.8754 155.8 37.8685 156.006 36.6094C156.252 35.0914 156.833 34.0033 157.746 33.345C158.661 32.6867 160.074 32.355 161.984 32.355H163.233L163.272 32.1163C163.422 31.194 163.385 30.5103 163.165 30.0602C162.945 29.6151 162.529 29.39 161.913 29.39C161.363 29.39 160.921 29.5322 160.588 29.825C160.257 30.116 160.018 30.5577 159.876 31.1467L157.583 31.1602C157.836 29.9417 158.38 28.9957 159.208 28.3273C160.034 27.6588 161.083 27.3237 162.359 27.3237C163.701 27.3237 164.642 27.7519 165.178 28.6099C165.714 29.473 165.846 30.7507 165.569 32.4514L164.734 37.5757C164.646 38.124 164.573 38.63 164.514 39.0988C164.457 39.5676 164.412 40.0076 164.382 40.4256L162.009 40.4273ZM162.883 34.5177H161.375C160.423 34.5177 159.728 34.6836 159.289 35.0102C158.853 35.3368 158.569 35.8851 158.446 36.6551C158.345 37.2711 158.41 37.7331 158.64 38.053C158.868 38.3711 159.251 38.5336 159.786 38.5336C160.536 38.5336 161.186 38.1917 161.738 37.5114C162.289 36.8345 162.658 35.9122 162.848 34.7411L162.883 34.5177Z" fill="#00447C"/>
<path d="M166.5 40.4273L167.971 31.3802C168.01 31.1433 168.07 30.7101 168.147 30.0856C168.224 29.4645 168.322 28.6438 168.438 27.6368H170.809L170.542 29.8538C171.047 29.0161 171.615 28.3882 172.236 27.977C172.858 27.559 173.544 27.3525 174.3 27.3525C175.474 27.3525 176.311 27.8112 176.814 28.7284C177.318 29.6439 177.437 30.9284 177.168 32.5784L175.893 40.4273H173.541L174.627 33.7461C174.837 32.4515 174.82 31.4784 174.57 30.8302C174.324 30.1787 173.852 29.8538 173.153 29.8538C172.425 29.8538 171.76 30.2312 171.156 30.991C170.549 31.7492 170.155 32.7155 169.966 33.8815L168.902 40.4273H166.5Z" fill="#00447C"/>
<path d="M185.25 35.8854H187.679C187.377 37.4017 186.751 38.5914 185.807 39.4494C184.862 40.3074 183.707 40.7355 182.339 40.7355C180.781 40.7355 179.665 40.1585 178.986 38.9992C178.309 37.8434 178.14 36.2306 178.476 34.1558C178.833 31.9677 179.544 30.2821 180.611 29.0975C181.678 27.918 183.023 27.3257 184.645 27.3257C185.901 27.3257 186.851 27.7268 187.493 28.5188C188.136 29.3175 188.375 30.3837 188.215 31.7189H185.912C185.892 31.0978 185.731 30.6206 185.429 30.2821C185.13 29.9471 184.709 29.7778 184.165 29.7778C183.364 29.7778 182.697 30.1417 182.165 30.8728C181.63 31.6021 181.25 32.6649 181.025 34.0577C180.799 35.4403 180.841 36.4912 181.147 37.1986C181.453 37.9094 182.022 38.2597 182.851 38.2597C183.463 38.2597 183.977 38.0566 184.385 37.6521C184.797 37.246 185.083 36.6554 185.25 35.8854Z" fill="#00447C"/>
<path d="M191.247 35.0051L191.226 35.127C191.054 36.1897 191.132 37.002 191.462 37.5757C191.789 38.1494 192.343 38.4354 193.118 38.4354C193.655 38.4354 194.115 38.251 194.501 37.8837C194.893 37.5148 195.167 36.9953 195.336 36.3251H197.685C197.343 37.7179 196.728 38.806 195.841 39.5862C194.954 40.3731 193.888 40.764 192.645 40.764C191.105 40.764 189.995 40.187 189.321 39.0379C188.645 37.8888 188.474 36.2845 188.808 34.23C189.156 32.0893 189.861 30.402 190.924 29.1717C191.985 27.9397 193.272 27.3237 194.784 27.3237C196.278 27.3237 197.305 27.9279 197.871 29.1294C198.435 30.331 198.526 32.1197 198.14 34.4923L198.058 35.0034L191.247 35.0051ZM191.61 32.7662L196.01 32.7527C196.139 31.7897 196.059 31.062 195.772 30.5645C195.482 30.072 194.987 29.825 194.29 29.825C193.667 29.825 193.116 30.0839 192.639 30.6017C192.167 31.123 191.821 31.8439 191.61 32.7662Z" fill="#00447C"/>
</svg>
